<svg xmlns="http://www.w3.org/2000/svg" viewBox="0 0 24.47 19.89"><path d="M15.46,29.94A14.19,14.19,0,0,0,29.75,15.66c0-.22,0-.43,0-.65a10.22,10.22,0,0,0,2.5-2.6,10,10,0,0,1-2.88.79,5,5,0,0,0,2.21-2.78,10.06,10.06,0,0,1-3.19,1.22,5,5,0,0,0-8.56,4.58A14.25,14.25,0,0,1,9.47,11,5,5,0,0,0,11,17.68,5,5,0,0,1,8.75,17s0,0,0,.06a5,5,0,0,0,4,4.92,5,5,0,0,1-2.27.09,5,5,0,0,0,4.69,3.49A10.08,10.08,0,0,1,9,27.76a10.22,10.22,0,0,1-1.2-.07,14.21,14.21,0,0,0,7.7,2.26" transform="translate(-7.76 -10.06)"/></svg>
