{
    "accessors" : [
        {
            "bufferView" : 0,
            "componentType" : 5125,
            "count" : 3210,
            "max" : [
                649
            ],
            "min" : [
                0
            ],
            "type" : "SCALAR"
        },
        {
            "bufferView" : 1,
            "componentType" : 5126,
            "count" : 650,
            "max" : [
                92.15945434570312,
                126.66409301757812,
                49.96559143066406
            ],
            "min" : [
                -92.15945434570312,
                -126.66409301757812,
                -8.387725830078125
            ],
            "type" : "VEC3"
        },
        {
            "bufferView" : 2,
            "componentType" : 5126,
            "count" : 650,
            "max" : [
                0.9958494901657104,
                0.9989623427391052,
                0.999603271484375
            ],
            "min" : [
                -0.9958494901657104,
                -0.9932249188423157,
                -0.999969482421875
            ],
            "type" : "VEC3"
        },
        {
            "bufferView" : 3,
            "componentType" : 5126,
            "count" : 650,
            "max" : [
                0.9999924302101135,
                0.8496508598327637,
                0.9976695775985718,
                1.0
            ],
            "min" : [
                -0.9999925494194031,
                -0.8468130230903625,
                -0.9963380694389343,
                1.0
            ],
            "type" : "VEC4"
        },
        {
            "bufferView" : 4,
            "componentType" : 5126,
            "count" : 650,
            "max" : [
                0.990234375,
                0.98046875
            ],
            "min" : [
                0.01265716552734375,
                0.00664520263671875
            ],
            "type" : "VEC2"
        }
    ],
    "asset" : {
        "generator" : "Khronos Blender glTF 2.0 exporter",
        "version" : "2.0"
    },
    "bufferViews" : [
        {
            "buffer" : 0,
            "byteLength" : 12840,
            "byteOffset" : 0,
            "target" : 34963
        },
        {
            "buffer" : 0,
            "byteLength" : 7800,
            "byteOffset" : 12840,
            "target" : 34962
        },
        {
            "buffer" : 0,
            "byteLength" : 7800,
            "byteOffset" : 20640,
            "target" : 34962
        },
        {
            "buffer" : 0,
            "byteLength" : 10400,
            "byteOffset" : 28440,
            "target" : 34962
        },
        {
            "buffer" : 0,
            "byteLength" : 5200,
            "byteOffset" : 38840,
            "target" : 34962
        }
    ],
    "buffers" : [
        {
            "byteLength" : 44040,
            "uri" : "shield.bin"
        }
    ],
    "images" : [
        {
            "uri" : "T_Shield_M.png"
        },
        {
            "uri" : "T_Shield_N.png"
        },
        {
            "uri" : "WallStoneBrickCast.png"
        }
    ],
    "materials" : [
        {
            "name" : "PBRTest",
            "normalTexture" : {
                "index" : 1
            },
            "occlusionTexture" : {
                "index" : 2
            },
            "pbrMetallicRoughness" : {
                "baseColorTexture" : {
                    "index" : 0
                },
                "metallicRoughnessTexture" : {
                    "index" : 2
                }
            }
        }
    ],
    "meshes" : [
        {
            "name" : "SM_Shield",
            "primitives" : [
                {
                    "attributes" : {
                        "NORMAL" : 2,
                        "POSITION" : 1,
                        "TANGENT" : 3,
                        "TEXCOORD_0" : 4
                    },
                    "indices" : 0,
                    "material" : 0
                }
            ]
        }
    ],
    "nodes" : [
        {
            "name" : "Camera",
            "rotation" : [
                0.6788728833198547,
                0.19781701266765594,
                -0.19781698286533356,
                0.6788729429244995
            ],
            "translation" : [
                2.0032167434692383,
                0.0,
                2.6458165645599365
            ]
        },
        {
            "mesh" : 0,
            "name" : "SM_Shield",
            "scale" : [
                0.009999999776482582,
                0.009999999776482582,
                0.009999999776482582
            ]
        },
        {
            "name" : "Sun",
            "rotation" : [
                0.17339330911636353,
                0.0397510789334774,
                -0.21989279985427856,
                0.9591672420501709
            ],
            "translation" : [
                3.305373191833496,
                4.582393646240234,
                1.810753583908081
            ]
        }
    ],
    "samplers" : [
        {}
    ],
    "scene" : 0,
    "scenes" : [
        {
            "name" : "Scene",
            "nodes" : [
                1,
                2,
                0
            ]
        }
    ],
    "textures" : [
        {
            "sampler" : 0,
            "source" : 0
        },
        {
            "sampler" : 0,
            "source" : 1
        },
        {
            "sampler" : 0,
            "source" : 2
        }
    ]
}
