<?xml version="1.0" encoding="iso-8859-1"?>
<!DOCTYPE svg PUBLIC "-//W3C//DTD SVG 1.1//EN" "http://www.w3.org/Graphics/SVG/1.1/DTD/svg11.dtd">
<svg version="1.1" id="Capa_1" xmlns="http://www.w3.org/2000/svg" xmlns:xlink="http://www.w3.org/1999/xlink" x="0px" y="0px" viewBox="0 0 792 792" style="enable-background:new 0 0 792 792;" xml:space="preserve"><g><g><path d="M537.949,134.075H490.64c-14.951,0-27.05,12.143-27.05,27.027v156.06H327.878v-156.06
c0-14.885-12.098-27.027-27.049-27.027h-46.8c-14.952,0-27.05,12.121-27.05,27.027c0,15.018,12.098,27.072,27.05,27.072h19.772
V344.19v325.789c0,67.303,54.741,122.021,122,122.021c67.214,0,121.911-54.719,121.911-122.021V344.19V188.152h20.26
c14.951,0,27.05-12.054,27.05-27.072C564.999,146.196,552.9,134.075,537.949,134.075z M463.613,669.979
c0,37.445-30.456,67.923-67.812,67.923c-37.445,0-67.9-30.479-67.9-67.923V371.218h135.734v298.761H463.613z"/><path d="M328.011,98.356c27.138,0,49.123-21.985,49.123-49.233C377.134,22.095,355.149,0,328.011,0
c-27.16,0-49.189,22.095-49.189,49.123C278.822,76.394,300.851,98.356,328.011,98.356z"/><path d="M435.015,142.414c16.854,0,30.544-13.735,30.544-30.522c0-16.809-13.69-30.522-30.544-30.522
c-16.81,0-30.456,13.713-30.456,30.522C404.559,128.679,418.206,142.414,435.015,142.414z"/><path d="M353.601,210.336c0,14.066,11.457,25.457,25.435,25.457c14.133,0,25.523-11.413,25.523-25.457
s-11.413-25.457-25.523-25.457C365.036,184.879,353.601,196.292,353.601,210.336z"/></g></g><g></g><g></g><g></g><g></g><g></g><g></g><g></g><g></g><g></g><g></g><g></g><g></g><g></g><g></g><g></g></svg>
